<svg xmlns="http://www.w3.org/2000/svg" xmlns:xlink="http://www.w3.org/1999/xlink" width="68" height="88" viewBox="0 0 68 88">
    <defs>
        <filter id="a" width="138.1%" height="125.6%" x="-18.4%" y="-11%" filterUnits="objectBoundingBox">
            <feOffset dy="1" in="SourceAlpha" result="shadowOffsetOuter1"/>
            <feGaussianBlur in="shadowOffsetOuter1" result="shadowBlurOuter1" stdDeviation="2.5"/>
            <feColorMatrix in="shadowBlurOuter1" result="shadowMatrixOuter1" values="0 0 0 0 0.474509804 0 0 0 0 0.474509804 0 0 0 0 0.474509804 0 0 0 0.2 0"/>
            <feMerge>
                <feMergeNode in="shadowMatrixOuter1"/>
                <feMergeNode in="SourceGraphic"/>
            </feMerge>
        </filter>
        <path id="b" d="M0 0h68v68.5H0z"/>
        <linearGradient id="c" x1="50%" x2="50%" y1="0%" y2="100%">
            <stop offset="0%" stop-color="#FFDE14"/>
            <stop offset="70.974%" stop-color="#FFDE14"/>
            <stop offset="100%" stop-color="#FFCD00"/>
        </linearGradient>
    </defs>
    <g fill="none" fill-rule="evenodd">
        <path fill="#0084FF" d="M63.169 37.979c-.41-8.503-6.64-2.364-6.64-16.44 0-1.426-1.355-2.467-2.734-2.467h-1.743c-1.379 0-2.751 1.042-2.734 2.467.176 14.076-6.23 7.937-6.64 16.44h-.044v24.249c0 4.229 3.317 5.293 7.408 5.293h5.763c4.092 0 7.408-1.064 7.408-5.293v-24.25h-.044z"/>
        <path fill="#FFDE14" d="M55.88 16.709h-5.912a.859.859 0 0 0-.855.863v.636c0 .478.382.864.855.864h5.912a.859.859 0 0 0 .855-.864v-.636a.859.859 0 0 0-.855-.863"/>
        <path fill="#FFDE14" d="M57.17 21.81c-.436-1.306-.436-2.613-.436-3.92h-7.621c0 1.307 0 2.614-.435 3.92-.126.377.073.807.375.807h7.742c.3 0 .5-.43.374-.807"/>
        <path fill="#F4BE18" d="M52.663 38.073h-2.715c-2.013 0-3.645 1.649-3.645 3.682v11.418c0 2.033 1.632 3.682 3.645 3.682h2.715c2.013 0 3.645-1.649 3.645-3.682V41.755c0-2.033-1.632-3.682-3.645-3.682"/>
        <g filter="url(#a)" transform="translate(9.067 4)">
            <path fill="#FFF" d="M43.35 0l-5.929 3.624L32.652 0l-5.265 3.624L21.904 0l-5.39 3.624L11.346 0 5.864 3.624 0 0V63.648h43.35z"/>
            <g fill="#EBEDF0">
                <path d="M30.351 12.383H12.327c-.549 0-.994.383-.994.856s.445.857.994.857h18.024c.55 0 .995-.384.995-.857s-.445-.856-.995-.856M26.098 8.057h-9.697c-.295 0-.534.432-.534.966s.24.967.534.967h9.697c.296 0 .535-.433.535-.967s-.24-.966-.535-.966M10.298 18.267H6.18c-.127 0-.23.694-.23 1.552v.688c0 .856.103 1.55.23 1.55h4.118c.128 0 .23-.694.23-1.55v-.688c0-.858-.102-1.552-.23-1.552M10.298 23.975H6.18c-.127 0-.23.695-.23 1.552v.689c0 .855.103 1.55.23 1.55h4.118c.128 0 .23-.695.23-1.55v-.689c0-.857-.102-1.552-.23-1.552M10.298 29.683H6.18c-.127 0-.23.695-.23 1.553v.688c0 .856.103 1.55.23 1.55h4.118c.128 0 .23-.694.23-1.55v-.688c0-.858-.102-1.553-.23-1.553M35.962 18.186H28.5c-.913 0-1.653.318-1.653.711v.315c0 .392.74.71 1.653.71h7.462c.913 0 1.652-.318 1.652-.71v-.315c0-.393-.74-.71-1.652-.71M35.962 23.021H28.5c-.913 0-1.653.319-1.653.711v.315c0 .392.74.71 1.653.71h7.462c.913 0 1.652-.318 1.652-.71v-.315c0-.392-.74-.71-1.652-.71M35.962 27.856H28.5c-.913 0-1.653.319-1.653.711v.315c0 .392.74.71 1.653.71h7.462c.913 0 1.652-.318 1.652-.71v-.315c0-.392-.74-.71-1.652-.71"/>
            </g>
        </g>
        <g transform="translate(0 30.55)">
            <mask id="d" fill="#fff">
                <use xlink:href="#b"/>
            </mask>
            <path fill="url(#c)" d="M67.978 19.403l-4.183 30.034c-.09 4.233-3.354 7.647-7.356 7.647H12.514c-4.001 0-7.265-3.414-7.354-7.647L1.13 20.518c.31.064.627.098.948.098l23.595.01c1.663 2.915 4.641 4.76 7.936 4.761 4.704 0 8.568-3.73 9.207-8.547h23.082c.612 0 1.192.283 1.591.776.4.491.577 1.145.489 1.787" mask="url(#d)"/>
            <path fill="#0084FF" d="M33.616 8.563c-2.822 0-5.199 1.927-6.09 4.605l-25.445-.012C.932 13.156 0 14.147 0 15.369s.93 2.214 2.08 2.214l25.4.012c.85 2.755 3.258 4.759 6.13 4.76 3.58.002 6.485-3.086 6.486-6.894.002-3.808-2.9-6.897-6.48-6.898M50.325 49.06h3.581c1.333 0 2.193-1.032 2.587-3.345.367-2.222-.113-3.207-1.445-3.207h-3.589l.569-3.33c.631-3.805 2.511-5.681 5.595-5.681h.588c1.724 0 2.657-.299 2.793-1.144.103-.571-.053-1.356-.221-2.221-.183-.84-.379-1.655-.652-2.11-.412-.77-1.366-1.14-2.865-1.14-3.711 0-6.759 1.084-9.163 3.27-2.397 2.18-3.924 5.11-4.604 9.081l-.576 3.275h-7.519c-.124 0-7.896.915-7.896.915l7.16 1.148.287 1.103-4.384.39 4.607.704.182.895-13.727.805s14.817.592 14.933.592h5.216l-1.346 8.024h8.553l1.336-8.024z" mask="url(#d)"/>
        </g>
    </g>
</svg>
