<svg width="24" height="24" viewBox="0 0 24 24" fill="none" xmlns="http://www.w3.org/2000/svg">
<rect width="24" height="24" rx="3" fill="#2874F0"/>
<path fill-rule="evenodd" clip-rule="evenodd" d="M12.109 20.219C9.95342 20.2466 7.88149 19.3859 6.38 17.839C4.83297 16.3372 3.97222 14.2649 4 12.109C3.97238 9.95342 4.83313 7.88148 6.38 6.38C7.88149 4.83312 9.95342 3.97238 12.109 4C14.2649 3.97222 16.3372 4.83297 17.839 6.38C19.3859 7.88148 20.2466 9.95342 20.219 12.109C20.2468 14.2649 19.386 16.3372 17.839 17.839C16.3372 19.386 14.2649 20.2468 12.109 20.219ZM11.309 16.183V17.783H12.909V16.183H11.309ZM13.251 8.535C12.9554 8.21816 12.5423 8.03726 12.109 8.035V8.036C11.6772 8.03787 11.2652 8.2168 10.969 8.531C10.6546 8.82783 10.4757 9.24061 10.474 9.673H8.874C8.86365 8.81332 9.20759 7.98729 9.825 7.389C10.4291 6.77971 11.2515 6.43698 12.1095 6.43698C12.9675 6.43698 13.7899 6.77971 14.394 7.389C15.0114 7.98729 15.3554 8.81332 15.345 9.673C15.3537 10.3611 15.0784 11.0224 14.584 11.501L13.86 12.262C13.2592 12.8714 12.9185 13.6903 12.91 14.546H11.31V14.127C11.3191 13.271 11.6604 12.452 12.262 11.843L13.251 10.819C13.5668 10.5231 13.7459 10.1097 13.7459 9.677C13.7459 9.24428 13.5668 8.83087 13.251 8.535Z" fill="white"/>
</svg>
